#tb 0: 1/25
0,          0,          0,        1,    38016, 0xb3883478
0,          1,          1,        1,    38016, 0xb6261cdd
0,          2,          2,        1,    38016, 0x42ecede9
0,          3,          3,        1,    38016, 0xfcd6aec1
0,          4,          4,        1,    38016, 0xb3ffa014
0,          5,          5,        1,    38016, 0xc65383e3
0,          6,          6,        1,    38016, 0xa8494fb1
0,          7,          7,        1,    38016, 0x7fb14e0f
0,          8,          8,        1,    38016, 0x7dd3462a
0,          9,          9,        1,    38016, 0x4bd43dda
0,         10,         10,        1,    38016, 0x717e736f
0,         11,         11,        1,    38016, 0x2a9b8e47
0,         12,         12,        1,    38016, 0x1bc272be
0,         13,         13,        1,    38016, 0x0127afb5
0,         14,         14,        1,    38016, 0xfd7aacda
0,         15,         15,        1,    38016, 0xd41c9cf7
0,         16,         16,        1,    38016, 0xd205b1ee
0,         17,         17,        1,    38016, 0x967ca895
0,         18,         18,        1,    38016, 0x25978063
0,         19,         19,        1,    38016, 0x632081b3
0,         20,         20,        1,    38016, 0x8ccf5f0b
0,         21,         21,        1,    38016, 0x21cc2141
0,         22,         22,        1,    38016, 0x477d2543
0,         23,         23,        1,    38016, 0xff971bb8
0,         24,         24,        1,    38016, 0x0dc21005
0,         25,         25,        1,    38016, 0xc69c2d90
0,         26,         26,        1,    38016, 0xd7922b5d
0,         27,         27,        1,    38016, 0x59a3278f
0,         28,         28,        1,    38016, 0x83c55d4d
0,         29,         29,        1,    38016, 0xaac96f23
0,         30,         30,        1,    38016, 0xed9563d3
0,         31,         31,        1,    38016, 0xf86b9ef4
0,         32,         32,        1,    38016, 0xe616b81c
0,         33,         33,        1,    38016, 0xde60a57b
0,         34,         34,        1,    38016, 0x5fe8d130
0,         35,         35,        1,    38016, 0x11decaca
0,         36,         36,        1,    38016, 0x526fa8e2
0,         37,         37,        1,    38016, 0xc5e7ccfb
0,         38,         38,        1,    38016, 0x10e1c588
0,         39,         39,        1,    38016, 0x78aeb05b
0,         40,         40,        1,    38016, 0xff85c717
0,         41,         41,        1,    38016, 0x3f02c1b2
0,         42,         42,        1,    38016, 0xf45eb015
0,         43,         43,        1,    38016, 0x0211b84d
0,         44,         44,        1,    38016, 0x3864ba1f
0,         45,         45,        1,    38016, 0xe3728780
0,         46,         46,        1,    38016, 0x575da8b5
0,         47,         47,        1,    38016, 0xc841ad98
0,         48,         48,        1,    38016, 0xe69ea78f
0,         49,         49,        1,    38016, 0x45cabf16
0,         50,         50,        1,    38016, 0x0e00b8eb
0,         51,         51,        1,    38016, 0xa774a808
0,         52,         52,        1,    38016, 0xfb1bbc2b
0,         53,         53,        1,    38016, 0xcfb4b41d
0,         54,         54,        1,    38016, 0x66abaff8
0,         55,         55,        1,    38016, 0xc39ac9a9
0,         56,         56,        1,    38016, 0xbec0cc9a
0,         57,         57,        1,    38016, 0xf393c7fc
0,         58,         58,        1,    38016, 0xedb5d4ef
0,         59,         59,        1,    38016, 0x4b0fd4fe
0,         60,         60,        1,    38016, 0x98a59a5a
0,         61,         61,        1,    38016, 0x0a69a4f3
0,         62,         62,        1,    38016, 0x72bc89ce
0,         63,         63,        1,    38016, 0xfe8538b6
0,         64,         64,        1,    38016, 0xc8a158a3
0,         65,         65,        1,    38016, 0x1cb57fcd
0,         66,         66,        1,    38016, 0x76c29215
0,         67,         67,        1,    38016, 0xdb36ec21
0,         68,         68,        1,    38016, 0xc2e22427
0,         69,         69,        1,    38016, 0xafb433cd
0,         70,         70,        1,    38016, 0x4d736e28
0,         71,         71,        1,    38016, 0xc6ab9949
0,         72,         72,        1,    38016, 0xaa9bb9e6
0,         73,         73,        1,    38016, 0x0d41f894
0,         74,         74,        1,    38016, 0x603332b0
0,         75,         75,        1,    38016, 0x4c0b3afa
0,         76,         76,        1,    38016, 0x8fd3845e
0,         77,         77,        1,    38016, 0x8cf09ae3
0,         78,         78,        1,    38016, 0x1e02adfb
0,         79,         79,        1,    38016, 0x3c9ac38e
0,         80,         80,        1,    38016, 0xb5fdd2d9
0,         81,         81,        1,    38016, 0x82c5dd7f
0,         82,         82,        1,    38016, 0x4b6ee80a
0,         83,         83,        1,    38016, 0xaeaee46f
0,         84,         84,        1,    38016, 0x390ed382
0,         85,         85,        1,    38016, 0xedbfde44
0,         86,         86,        1,    38016, 0xabf6eba0
0,         87,         87,        1,    38016, 0x5bf5efd0
0,         88,         88,        1,    38016, 0x9a88ebe3
0,         89,         89,        1,    38016, 0x2af7ec3b
0,         90,         90,        1,    38016, 0x8fa69f07
0,         91,         91,        1,    38016, 0xff8fb3b5
0,         92,         92,        1,    38016, 0xd06fa3c1
0,         93,         93,        1,    38016, 0xe5a97d39
0,         94,         94,        1,    38016, 0x961e7c6f
0,         95,         95,        1,    38016, 0x18b278af
0,         96,         96,        1,    38016, 0x9a0d73d2
0,         97,         97,        1,    38016, 0x378f9d74
0,         98,         98,        1,    38016, 0x42e5a7a3
0,         99,         99,        1,    38016, 0x4595a78e
0,        100,        100,        1,    38016, 0x6c09c035
0,        101,        101,        1,    38016, 0xec58ab98
0,        102,        102,        1,    38016, 0x1b4b8d2b
0,        103,        103,        1,    38016, 0xf5199117
0,        104,        104,        1,    38016, 0xcd31af4d
0,        105,        105,        1,    38016, 0xf294a253
0,        106,        106,        1,    38016, 0x360dde6b
0,        107,        107,        1,    38016, 0x101cf70c
0,        108,        108,        1,    38016, 0x4b34ff17
0,        109,        109,        1,    38016, 0x520639c0
0,        110,        110,        1,    38016, 0x901840a9
0,        111,        111,        1,    38016, 0x4cb03284
0,        112,        112,        1,    38016, 0x6929470c
0,        113,        113,        1,    38016, 0x21282bdf
0,        114,        114,        1,    38016, 0xee8df0ec
0,        115,        115,        1,    38016, 0x24970e16
0,        116,        116,        1,    38016, 0x280118e3
0,        117,        117,        1,    38016, 0x00a10b64
0,        118,        118,        1,    38016, 0xb0673f83
0,        119,        119,        1,    38016, 0x838644de
0,        120,        120,        1,    38016, 0x32e93592
0,        121,        121,        1,    38016, 0xedfc477a
0,        122,        122,        1,    38016, 0x41062501
0,        123,        123,        1,    38016, 0xf218ebf2
0,        124,        124,        1,    38016, 0x3430dc73
0,        125,        125,        1,    38016, 0xb2fab8f0
0,        126,        126,        1,    38016, 0x11b19bab
0,        127,        127,        1,    38016, 0x8e30b8e7
0,        128,        128,        1,    38016, 0xc8b9c646
0,        129,        129,        1,    38016, 0xc902d559
0,        130,        130,        1,    38016, 0x3a24ec30
0,        131,        131,        1,    38016, 0x744de424
0,        132,        132,        1,    38016, 0xc40cd059
0,        133,        133,        1,    38016, 0xd98dd9ec
0,        134,        134,        1,    38016, 0x9719d698
0,        135,        135,        1,    38016, 0x1612a173
0,        136,        136,        1,    38016, 0xc044b9f1
0,        137,        137,        1,    38016, 0xc433af2f
0,        138,        138,        1,    38016, 0x559891e3
0,        139,        139,        1,    38016, 0x969e9a33
0,        140,        140,        1,    38016, 0x8a6a8e77
0,        141,        141,        1,    38016, 0x9d7b76bf
0,        142,        142,        1,    38016, 0x3725711a
0,        143,        143,        1,    38016, 0x5b316bd0
0,        144,        144,        1,    38016, 0x4c616abd
0,        145,        145,        1,    38016, 0x43637e2b
0,        146,        146,        1,    38016, 0xd9e36c4c
0,        147,        147,        1,    38016, 0x823d3596
0,        148,        148,        1,    38016, 0x57361a59
0,        149,        149,        1,    38016, 0x4a91f007
0,        150,        150,        1,    38016, 0xf731aef2
0,        151,        151,        1,    38016, 0x8ed2c618
0,        152,        152,        1,    38016, 0x6f1cc918
0,        153,        153,        1,    38016, 0x2a8ba336
0,        154,        154,        1,    38016, 0x8159b595
0,        155,        155,        1,    38016, 0x07cfced9
0,        156,        156,        1,    38016, 0x8804c878
0,        157,        157,        1,    38016, 0x624e0656
0,        158,        158,        1,    38016, 0x8628302b
0,        159,        159,        1,    38016, 0xd155461e
0,        160,        160,        1,    38016, 0x3c1c647c
0,        161,        161,        1,    38016, 0x8a485727
0,        162,        162,        1,    38016, 0x144934f7
0,        163,        163,        1,    38016, 0x43183494
0,        164,        164,        1,    38016, 0x20fd2ef2
0,        165,        165,        1,    38016, 0xc31bf5da
0,        166,        166,        1,    38016, 0x4c70f0f2
0,        167,        167,        1,    38016, 0xba1bcbcc
0,        168,        168,        1,    38016, 0x11039c6c
0,        169,        169,        1,    38016, 0x67c59b61
0,        170,        170,        1,    38016, 0xdc0aa2ba
0,        171,        171,        1,    38016, 0x1e2dbec9
0,        172,        172,        1,    38016, 0xacacdc6c
0,        173,        173,        1,    38016, 0x2049defe
0,        174,        174,        1,    38016, 0x7488cc3e
0,        175,        175,        1,    38016, 0x14bca829
0,        176,        176,        1,    38016, 0xc19c76ee
0,        177,        177,        1,    38016, 0xeca33612
0,        178,        178,        1,    38016, 0x93b027a5
0,        179,        179,        1,    38016, 0x82ae1e62
0,        180,        180,        1,    38016, 0x0769ec52
0,        181,        181,        1,    38016, 0x7cdee8dd
0,        182,        182,        1,    38016, 0x7d22d43d
0,        183,        183,        1,    38016, 0x65d8cd49
0,        184,        184,        1,    38016, 0xa7d2ede4
0,        185,        185,        1,    38016, 0x6bd2ffa1
0,        186,        186,        1,    38016, 0xb4db0734
0,        187,        187,        1,    38016, 0x69cb35ac
0,        188,        188,        1,    38016, 0x05e52e88
0,        189,        189,        1,    38016, 0x4dc92a43
0,        190,        190,        1,    38016, 0x8ca0e858
0,        191,        191,        1,    38016, 0x74fbae53
0,        192,        192,        1,    38016, 0x19f0aa17
0,        193,        193,        1,    38016, 0x04c9dc83
0,        194,        194,        1,    38016, 0x0a8ff4b9
0,        195,        195,        1,    38016, 0xd8d01ad1
0,        196,        196,        1,    38016, 0xa41b5100
0,        197,        197,        1,    38016, 0xfaf96547
0,        198,        198,        1,    38016, 0xadab8265
0,        199,        199,        1,    38016, 0x6e12a9c3
0,        200,        200,        1,    38016, 0x1de7b7d1
0,        201,        201,        1,    38016, 0x2279bc4a
0,        202,        202,        1,    38016, 0x4f62ca0f
0,        203,        203,        1,    38016, 0xfaf2cc43
0,        204,        204,        1,    38016, 0xbf68c7df
0,        205,        205,        1,    38016, 0xb927d1ea
0,        206,        206,        1,    38016, 0x8b93d7c6
0,        207,        207,        1,    38016, 0x13f3d7d6
0,        208,        208,        1,    38016, 0x9ee4cc7b
0,        209,        209,        1,    38016, 0x16deb1a0
0,        210,        210,        1,    38016, 0xadb65d17
0,        211,        211,        1,    38016, 0x0b9e7542
0,        212,        212,        1,    38016, 0x05777490
0,        213,        213,        1,    38016, 0x6805549f
0,        214,        214,        1,    38016, 0xe3246225
0,        215,        215,        1,    38016, 0x4003551b
0,        216,        216,        1,    38016, 0x1e083a01
0,        217,        217,        1,    38016, 0x756e4f22
0,        218,        218,        1,    38016, 0xf2f24967
0,        219,        219,        1,    38016, 0x680d37f2
0,        220,        220,        1,    38016, 0x85b34185
0,        221,        221,        1,    38016, 0xefa32eeb
0,        222,        222,        1,    38016, 0xca791448
0,        223,        223,        1,    38016, 0x7c6b2b13
0,        224,        224,        1,    38016, 0x0d8232a6
0,        225,        225,        1,    38016, 0x92b51315
0,        226,        226,        1,    38016, 0xcfde349c
0,        227,        227,        1,    38016, 0xdc1a488b
0,        228,        228,        1,    38016, 0xdcf94106
0,        229,        229,        1,    38016, 0xc205829b
0,        230,        230,        1,    38016, 0x0aff9da3
0,        231,        231,        1,    38016, 0x3295b04e
0,        232,        232,        1,    38016, 0xc42dfaab
0,        233,        233,        1,    38016, 0x799e14a2
0,        234,        234,        1,    38016, 0xf658150c
0,        235,        235,        1,    38016, 0x4c8751fe
0,        236,        236,        1,    38016, 0xe57d58ed
0,        237,        237,        1,    38016, 0x28f83c49
0,        238,        238,        1,    38016, 0x9760453c
0,        239,        239,        1,    38016, 0x1d550fcf
0,        240,        240,        1,    38016, 0x99cee4bd
0,        241,        241,        1,    38016, 0x743ad122
0,        242,        242,        1,    38016, 0xb533ab7c
0,        243,        243,        1,    38016, 0x5ca5fc65
0,        244,        244,        1,    38016, 0x491c7076
0,        245,        245,        1,    38016, 0x8a96d9e5
0,        246,        246,        1,    38016, 0x23c3f207
0,        247,        247,        1,    38016, 0x3181d62d
0,        248,        248,        1,    38016, 0xc72e9636
0,        249,        249,        1,    38016, 0xe0c31ae9
0,        250,        250,        1,    38016, 0x2f91c0ce
0,        251,        251,        1,    38016, 0x17937763
0,        252,        252,        1,    38016, 0x61986c20
0,        253,        253,        1,    38016, 0x6adeca83
0,        254,        254,        1,    38016, 0x894a376b
0,        255,        255,        1,    38016, 0xe952c9bd
0,        256,        256,        1,    38016, 0x0418d8e9
0,        257,        257,        1,    38016, 0x30de606e
0,        258,        258,        1,    38016, 0xd15e3116
0,        259,        259,        1,    38016, 0xee0446ac
0,        260,        260,        1,    38016, 0x34ee44f7
0,        261,        261,        1,    38016, 0x825745d4
0,        262,        262,        1,    38016, 0xb8046176
0,        263,        263,        1,    38016, 0xa812588a
0,        264,        264,        1,    38016, 0xed754b26
0,        265,        265,        1,    38016, 0xa39c51cd
0,        266,        266,        1,    38016, 0x315b38d5
0,        267,        267,        1,    38016, 0x12550e05
0,        268,        268,        1,    38016, 0xbda6fd9a
0,        269,        269,        1,    38016, 0xd10bd86c
0,        270,        270,        1,    38016, 0x6faca613
0,        271,        271,        1,    38016, 0x6268848a
0,        272,        272,        1,    38016, 0x2b8367e6
0,        273,        273,        1,    38016, 0xdb6806fd
0,        274,        274,        1,    38016, 0x4f58d418
0,        275,        275,        1,    38016, 0x59beb628
0,        276,        276,        1,    38016, 0x8017aae2
0,        277,        277,        1,    38016, 0xb26ad1b3
0,        278,        278,        1,    38016, 0xa058f3a3
0,        279,        279,        1,    38016, 0x4fee4ac2
0,        280,        280,        1,    38016, 0x5dd20ae9
0,        281,        281,        1,    38016, 0x6365dbda
0,        282,        282,        1,    38016, 0x25b47f80
0,        283,        283,        1,    38016, 0x468b8ecb
0,        284,        284,        1,    38016, 0x0b0760f9
0,        285,        285,        1,    38016, 0x2d41a44b
0,        286,        286,        1,    38016, 0x4bb47357
0,        287,        287,        1,    38016, 0x2c0ca74c
0,        288,        288,        1,    38016, 0x6484a271
0,        289,        289,        1,    38016, 0xa55871df
0,        290,        290,        1,    38016, 0xa617ecd8
0,        291,        291,        1,    38016, 0xf7231cc5
0,        292,        292,        1,    38016, 0x15dba20b
0,        293,        293,        1,    38016, 0x56a7d8c7
0,        294,        294,        1,    38016, 0x5e78382b
0,        295,        295,        1,    38016, 0x8edf243b
0,        296,        296,        1,    38016, 0x571effaf
0,        297,        297,        1,    38016, 0x274302d2
0,        298,        298,        1,    38016, 0xc950203d
0,        299,        299,        1,    38016, 0x4a744324
